<mxfile host="app.diagrams.net" modified="2021-01-27T08:30:14.149Z" agent="5.0 (Windows NT 6.1; Win64; x64) AppleWebKit/537.36 (KHTML, like Gecko) Chrome/87.0.4280.141 Safari/537.36" etag="IxeEHmPHc3nsW50xHhB8" version="14.2.7" type="github">
  <diagram id="HQZSW2-YOYBsmXDDac5F" name="Page-1">
    <mxGraphModel dx="1099" dy="546" grid="1" gridSize="10" guides="1" tooltips="1" connect="1" arrows="1" fold="1" page="1" pageScale="1" pageWidth="827" pageHeight="1169" math="0" shadow="0">
      <root>
        <mxCell id="0" />
        <mxCell id="1" parent="0" />
        <mxCell id="zPHGo2zBqFZL4SyeNaxN-1" value="" style="verticalLabelPosition=bottom;verticalAlign=top;html=1;shadow=0;dashed=0;strokeWidth=1;shape=mxgraph.android.phone2;strokeColor=#c0c0c0;" vertex="1" parent="1">
          <mxGeometry x="320" y="150" width="250" height="490" as="geometry" />
        </mxCell>
        <mxCell id="zPHGo2zBqFZL4SyeNaxN-3" value="" style="strokeWidth=1;html=1;shadow=0;dashed=0;shape=mxgraph.android.rrect;rSize=0;strokeColor=#eeeeee;gradientColor=none;fontColor=#EA6B66;fillColor=#FFFFFF;" vertex="1" parent="1">
          <mxGeometry x="330" y="200" width="230" height="390" as="geometry" />
        </mxCell>
        <mxCell id="zPHGo2zBqFZL4SyeNaxN-4" value="" style="strokeColor=inherit;fillColor=inherit;gradientColor=inherit;strokeWidth=1;html=1;shadow=0;dashed=0;shape=mxgraph.android.rrect;rSize=0;align=left;spacingLeft=10;fontSize=8;fontColor=#333333;" vertex="1" parent="zPHGo2zBqFZL4SyeNaxN-3">
          <mxGeometry width="230.00000000000003" height="97.50000000000001" as="geometry" />
        </mxCell>
        <mxCell id="zPHGo2zBqFZL4SyeNaxN-5" value="" style="strokeColor=inherit;fillColor=inherit;gradientColor=inherit;strokeWidth=1;html=1;shadow=0;dashed=0;shape=mxgraph.android.rrect;rSize=0;align=left;spacingLeft=10;fontSize=8;fontColor=#333333;" vertex="1" parent="zPHGo2zBqFZL4SyeNaxN-3">
          <mxGeometry y="97.50000000000001" width="230.00000000000003" height="97.50000000000001" as="geometry" />
        </mxCell>
        <mxCell id="zPHGo2zBqFZL4SyeNaxN-6" value="" style="strokeColor=inherit;fillColor=inherit;gradientColor=inherit;strokeWidth=1;html=1;shadow=0;dashed=0;shape=mxgraph.android.rrect;rSize=0;align=left;spacingLeft=10;fontSize=8;fontColor=#333333;" vertex="1" parent="zPHGo2zBqFZL4SyeNaxN-3">
          <mxGeometry y="195.00000000000003" width="230.00000000000003" height="97.50000000000001" as="geometry" />
        </mxCell>
        <mxCell id="zPHGo2zBqFZL4SyeNaxN-9" value="&lt;span style=&quot;font-size: 13px&quot;&gt;&lt;b&gt;Milano Fashion Week&lt;/b&gt;&lt;/span&gt;" style="text;html=1;align=center;verticalAlign=middle;resizable=0;points=[];autosize=1;" vertex="1" parent="zPHGo2zBqFZL4SyeNaxN-3">
          <mxGeometry x="-5" y="10" width="150" height="20" as="geometry" />
        </mxCell>
        <mxCell id="zPHGo2zBqFZL4SyeNaxN-11" value="&lt;span style=&quot;font-size: 13px&quot;&gt;&lt;b&gt;Fashion Show Tashkent Circus&lt;/b&gt;&lt;/span&gt;" style="text;html=1;align=center;verticalAlign=middle;resizable=0;points=[];autosize=1;" vertex="1" parent="zPHGo2zBqFZL4SyeNaxN-3">
          <mxGeometry x="-5" y="110" width="210" height="20" as="geometry" />
        </mxCell>
        <mxCell id="zPHGo2zBqFZL4SyeNaxN-12" value="&lt;span style=&quot;font-size: 13px&quot;&gt;&lt;b&gt;International Fashion Trade Show&lt;/b&gt;&lt;/span&gt;" style="text;html=1;align=center;verticalAlign=middle;resizable=0;points=[];autosize=1;" vertex="1" parent="zPHGo2zBqFZL4SyeNaxN-3">
          <mxGeometry x="-5" y="200" width="220" height="20" as="geometry" />
        </mxCell>
        <mxCell id="zPHGo2zBqFZL4SyeNaxN-13" value="Roma, 10-3-2021" style="text;html=1;align=center;verticalAlign=middle;resizable=0;points=[];autosize=1;" vertex="1" parent="zPHGo2zBqFZL4SyeNaxN-3">
          <mxGeometry x="-5" y="130" width="110" height="20" as="geometry" />
        </mxCell>
        <mxCell id="zPHGo2zBqFZL4SyeNaxN-10" value="Milano, 20-4-2021" style="text;html=1;align=center;verticalAlign=middle;resizable=0;points=[];autosize=1;" vertex="1" parent="zPHGo2zBqFZL4SyeNaxN-3">
          <mxGeometry x="-5" y="30" width="110" height="20" as="geometry" />
        </mxCell>
        <mxCell id="zPHGo2zBqFZL4SyeNaxN-14" value="Roma, 27-2-2021" style="text;html=1;align=center;verticalAlign=middle;resizable=0;points=[];autosize=1;" vertex="1" parent="zPHGo2zBqFZL4SyeNaxN-3">
          <mxGeometry x="-5" y="220" width="110" height="20" as="geometry" />
        </mxCell>
        <mxCell id="zPHGo2zBqFZL4SyeNaxN-15" value="9:00-12:00" style="text;html=1;align=center;verticalAlign=middle;resizable=0;points=[];autosize=1;" vertex="1" parent="zPHGo2zBqFZL4SyeNaxN-3">
          <mxGeometry y="50" width="70" height="20" as="geometry" />
        </mxCell>
        <mxCell id="zPHGo2zBqFZL4SyeNaxN-16" value="" style="shape=image;html=1;verticalAlign=top;verticalLabelPosition=bottom;labelBackgroundColor=none;imageAspect=0;aspect=fixed;image=https://cdn3.iconfinder.com/data/icons/basic-user-interface-5/64/star_stars_space_shape_rate_rating_feedback-128.png" vertex="1" parent="zPHGo2zBqFZL4SyeNaxN-3">
          <mxGeometry x="190" y="67.5" width="30" height="30" as="geometry" />
        </mxCell>
        <mxCell id="zPHGo2zBqFZL4SyeNaxN-18" value="" style="shape=image;html=1;verticalAlign=top;verticalLabelPosition=bottom;labelBackgroundColor=#FFFF00;imageAspect=0;aspect=fixed;image=https://cdn3.iconfinder.com/data/icons/basic-user-interface-5/64/star_stars_space_shape_rate_rating_feedback-128.png;labelBorderColor=none;fontColor=#FFFF00;" vertex="1" parent="zPHGo2zBqFZL4SyeNaxN-3">
          <mxGeometry x="190" y="165" width="30" height="30" as="geometry" />
        </mxCell>
        <mxCell id="zPHGo2zBqFZL4SyeNaxN-19" value="" style="shape=image;html=1;verticalAlign=top;verticalLabelPosition=bottom;labelBackgroundColor=#ffffff;imageAspect=0;aspect=fixed;image=https://cdn3.iconfinder.com/data/icons/basic-user-interface-5/64/star_stars_space_shape_rate_rating_feedback-128.png" vertex="1" parent="zPHGo2zBqFZL4SyeNaxN-3">
          <mxGeometry x="190" y="260" width="30" height="30" as="geometry" />
        </mxCell>
        <mxCell id="zPHGo2zBqFZL4SyeNaxN-20" value="8:00-11:00" style="text;html=1;align=center;verticalAlign=middle;resizable=0;points=[];autosize=1;" vertex="1" parent="zPHGo2zBqFZL4SyeNaxN-3">
          <mxGeometry y="150" width="70" height="20" as="geometry" />
        </mxCell>
        <mxCell id="zPHGo2zBqFZL4SyeNaxN-21" value="10:00-13:00" style="text;html=1;align=center;verticalAlign=middle;resizable=0;points=[];autosize=1;" vertex="1" parent="zPHGo2zBqFZL4SyeNaxN-3">
          <mxGeometry y="240" width="80" height="20" as="geometry" />
        </mxCell>
      </root>
    </mxGraphModel>
  </diagram>
</mxfile>
